<svg xmlns="http://www.w3.org/2000/svg">
  <symbol id="flag-ph" viewBox="0 0 60 40"><path fill="#0038a8" d="M0 0h60v20H0z"/><path fill="#ce1126" d="M0 20h60v20H0z"/><path fill="#fff" d="m0 0 30 20L0 40z"/><circle cx="10" cy="20" r="4" fill="#fcd116"/><g fill="#fcd116"><circle cx="3.5" cy="5" r="1.6"/><circle cx="3.5" cy="35" r="1.6"/><circle cx="25" cy="20" r="1.6"/></g></symbol>
  <symbol id="flag-jp" viewBox="0 0 60 40"><path fill="#fff" d="M0 0h60v40H0z"/><circle cx="30" cy="20" r="12" fill="#bc002d"/></symbol>
  <symbol id="flag-tw" viewBox="0 0 60 40"><path fill="#fe0000" d="M0 0h60v40H0z"/><path fill="#000095" d="M0 0h30v20H0z"/><circle cx="15" cy="10" r="5" fill="#fff"/><path fill="#fff" d="m15 1 1.2 5.6L20 2.3l-1.8 5.4L24 6l-4.8 3.3 5.8.7-5.8.7L24 14l-5.8-1.7 1.8 5.4-3.8-4.3L15 19l-1.2-5.6-3.8 4.3 1.8-5.4L6 14l4.8-3.3L5 10l5.8-.7L6 6l5.8 1.7L10 2.3l3.8 4.3z"/></symbol>
  <symbol id="flag-mm" viewBox="0 0 60 40"><path fill="#fecb00" d="M0 0h60v13.34H0z"/><path fill="#34b233" d="M0 13.33h60v13.34H0z"/><path fill="#ea2839" d="M0 26.66h60V40H0z"/><path fill="#fff" d="m30 7 3.3 9.1 9.7.3-7.7 5.9 2.7 9.3-8-5.5-8 5.5 2.7-9.3-7.7-5.9 9.7-.3z"/></symbol>
  <symbol id="flag-my" viewBox="0 0 60 40"><path fill="#fff" d="M0 0h60v40H0z"/><g fill="#cc0001"><path d="M0 0h60v3.08H0zm0 6.15h60v3.08H0zm0 6.15h60v3.08H0zm0 6.16h60v3.08H0zm0 6.15h60v3.08H0zm0 6.16h60v3.08H0zm0 6.15h60V40H0z"/></g><path fill="#010066" d="M0 0h30v21.54H0z"/><circle cx="12" cy="10.77" r="7" fill="#fc0"/><circle cx="14.8" cy="9.4" r="6" fill="#010066"/><path fill="#fc0" d="m22 4 1.3 4 4.2.1-3.4 2.5 1.3 4-3.4-2.4-3.4 2.4 1.3-4-3.4-2.5 4.2-.1z"/></symbol>
  <symbol id="flag-bg" viewBox="0 0 60 40"><path fill="#fff" d="M0 0h60v13.34H0z"/><path fill="#00966e" d="M0 13.33h60v13.34H0z"/><path fill="#d62612" d="M0 26.66h60V40H0z"/></symbol>
  <symbol id="flag-pl" viewBox="0 0 60 40"><path fill="#fff" d="M0 0h60v20H0z"/><path fill="#dc143c" d="M0 20h60v20H0z"/></symbol>
  <symbol id="flag-ro" viewBox="0 0 60 40"><path fill="#002b7f" d="M0 0h20v40H0z"/><path fill="#fcd116" d="M20 0h20v40H20z"/><path fill="#ce1126" d="M40 0h20v40H40z"/></symbol>
  <symbol id="flag-ua" viewBox="0 0 60 40"><path fill="#0057b7" d="M0 0h60v20H0z"/><path fill="#ffd700" d="M0 20h60v20H0z"/></symbol>
  <symbol id="flag-by" viewBox="0 0 60 40"><path fill="#ce1720" d="M8 0h52v27H8z"/><path fill="#007c30" d="M8 27h52v13H8z"/><path fill="#fff" d="M0 0h8v40H0z"/><path fill="#ce1720" d="m1 2 3 3 3-3v5L4 10 1 7zm0 12 3 3 3-3v5l-3 3-3-3zm0 12 3 3 3-3v5l-3 3-3-3z"/></symbol>
  <symbol id="flag-mn" viewBox="0 0 60 40"><path fill="#c4272f" d="M0 0h20v40H0zm40 0h20v40H40z"/><path fill="#015197" d="M20 0h20v40H20z"/><path fill="#f9cf02" d="M8 7h4v6H8zm0 10h4v16H8z"/><circle cx="10" cy="15" r="3" fill="none" stroke="#f9cf02" stroke-width="1.5"/></symbol>
  <symbol id="flag-hk" viewBox="0 0 60 40"><path fill="#de2910" d="M0 0h60v40H0z"/><g fill="#fff"><ellipse cx="30" cy="12" rx="3" ry="8" transform="rotate(0 30 20)"/><ellipse cx="30" cy="12" rx="3" ry="8" transform="rotate(72 30 20)"/><ellipse cx="30" cy="12" rx="3" ry="8" transform="rotate(144 30 20)"/><ellipse cx="30" cy="12" rx="3" ry="8" transform="rotate(216 30 20)"/><ellipse cx="30" cy="12" rx="3" ry="8" transform="rotate(288 30 20)"/></g></symbol>
  <symbol id="flag-kp" viewBox="0 0 60 40"><path fill="#024fa2" d="M0 0h60v40H0z"/><path fill="#fff" d="M0 6h60v28H0z"/><path fill="#ed1c27" d="M0 9h60v22H0z"/><circle cx="20" cy="20" r="8" fill="#fff"/><path fill="#ed1c27" d="m20 13 1.7 4.7h5l-4 3 1.5 4.8-4.2-2.9-4.2 2.9 1.5-4.8-4-3h5z"/></symbol>
  <symbol id="flag-md" viewBox="0 0 60 40"><path fill="#0046ae" d="M0 0h20v40H0z"/><path fill="#ffd200" d="M20 0h20v40H20z"/><path fill="#cc092f" d="M40 0h20v40H40z"/><circle cx="30" cy="20" r="5" fill="#9b4f16"/><path fill="#006b3f" d="m25 18 5 9 5-9-5 3z"/></symbol>
  <symbol id="flag-dk" viewBox="0 0 60 40"><path fill="#c60c30" d="M0 0h60v40H0z"/><path fill="#fff" d="M18 0h6v40h-6zM0 17h60v6H0z"/></symbol>
  <symbol id="flag-hn" viewBox="0 0 60 40"><path fill="#00bce4" d="M0 0h60v13.34H0zm0 26.66h60V40H0z"/><path fill="#fff" d="M0 13.33h60v13.34H0z"/><g fill="#00bce4"><circle cx="22" cy="17" r="1.5"/><circle cx="38" cy="17" r="1.5"/><circle cx="30" cy="20" r="1.5"/><circle cx="22" cy="23" r="1.5"/><circle cx="38" cy="23" r="1.5"/></g></symbol>
  <symbol id="flag-so" viewBox="0 0 60 40"><path fill="#4189dd" d="M0 0h60v40H0z"/><path fill="#fff" d="m30 10 2.4 7.1h7.5l-6.1 4.4 2.4 7.1-6.2-4.4-6.2 4.4 2.4-7.1-6.1-4.4h7.5z"/></symbol>
  <symbol id="flag-bi" viewBox="0 0 60 40"><path fill="#1eb53a" d="M0 0h60v40H0z"/><path fill="#ce1126" d="M0 0h60L0 40h60z"/><path fill="#fff" d="M0 0 60 40M60 0 0 40" stroke="#fff" stroke-width="8"/><circle cx="30" cy="20" r="10" fill="#fff"/><g fill="#ce1126"><circle cx="30" cy="15" r="1.7"/><circle cx="26" cy="23" r="1.7"/><circle cx="34" cy="23" r="1.7"/></g></symbol>
  <symbol id="flag-ao" viewBox="0 0 60 40"><path fill="#cc092f" d="M0 0h60v20H0z"/><path fill="#000" d="M0 20h60v20H0z"/><path fill="none" stroke="#ffcb00" stroke-width="3" d="M39 14a11 11 0 1 0 1 15"/><path fill="#ffcb00" d="m22 28 17-14 2 3-17 14zM29 17l9 12-3 2-9-12z"/></symbol>
  <symbol id="flag-gw" viewBox="0 0 60 40"><path fill="#fcd116" d="M20 0h40v20H20z"/><path fill="#009e49" d="M20 20h40v20H20z"/><path fill="#ce1126" d="M0 0h20v40H0z"/><path fill="#000" d="m10 12 2 5.5h5.8l-4.7 3.4 1.8 5.6-4.9-3.4-4.9 3.4 1.8-5.6-4.7-3.4H8z"/></symbol>
  <symbol id="flag-er" viewBox="0 0 60 40"><path fill="#12ad2b" d="M0 0h60L0 20z"/><path fill="#4189dd" d="M0 20v20h60z"/><path fill="#e32118" d="M0 0v40l60-20z"/><circle cx="15" cy="20" r="7" fill="none" stroke="#ffc72c" stroke-width="1.6"/><path fill="#ffc72c" d="M14 12h2v16h-2z"/></symbol>
  <symbol id="flag-tj" viewBox="0 0 60 40"><path fill="#cc0000" d="M0 0h60v12H0z"/><path fill="#fff" d="M0 12h60v16H0z"/><path fill="#006600" d="M0 28h60v12H0z"/><path fill="#f8c300" d="m30 17 2 5h-4zm-8 6h16v2H22z"/><g fill="#f8c300"><circle cx="22" cy="19" r="1"/><circle cx="26" cy="17" r="1"/><circle cx="34" cy="17" r="1"/><circle cx="38" cy="19" r="1"/></g></symbol>
  <symbol id="flag-tm" viewBox="0 0 60 40"><path fill="#00843d" d="M0 0h60v40H0z"/><path fill="#d22630" d="M8 0h10v40H8z"/><path fill="#fff" d="M42 8a7 7 0 1 0 5 12 6 6 0 1 1-5-12z"/><g fill="#fff"><circle cx="48" cy="8" r="1"/><circle cx="51" cy="12" r="1"/><circle cx="49" cy="16" r="1"/><circle cx="45" cy="14" r="1"/><circle cx="44" cy="10" r="1"/></g><g fill="#ffc72c"><circle cx="13" cy="6" r="1.5"/><circle cx="13" cy="14" r="1.5"/><circle cx="13" cy="22" r="1.5"/><circle cx="13" cy="30" r="1.5"/></g></symbol>
  <symbol id="flag-ca" viewBox="0 0 60 40"><path fill="#d80621" d="M0 0h15v40H0zm45 0h15v40H45z"/><path fill="#fff" d="M15 0h30v40H15z"/><path fill="#d80621" d="m30 7 2.4 7 5-2-2 6 5 2-7 4 1 7-4.4-2.5-4.4 2.5 1-7-7-4 5-2-2-6 5 2z"/></symbol>
  <symbol id="flag-mx" viewBox="0 0 60 40"><path fill="#006847" d="M0 0h20v40H0z"/><path fill="#fff" d="M20 0h20v40H20z"/><path fill="#ce1126" d="M40 0h20v40H40z"/><circle cx="30" cy="20" r="5" fill="#8c6239"/><path fill="none" stroke="#006847" stroke-width="1.5" d="M24 23q6 8 12 0"/></symbol>
  <symbol id="flag-ru" viewBox="0 0 60 40"><path fill="#fff" d="M0 0h60v13.34H0z"/><path fill="#0039a6" d="M0 13.33h60v13.34H0z"/><path fill="#d52b1e" d="M0 26.66h60V40H0z"/></symbol>
  <symbol id="flag-sy" viewBox="0 0 60 40"><path fill="#ce1126" d="M0 0h60v13.34H0z"/><path fill="#fff" d="M0 13.33h60v13.34H0z"/><path fill="#000" d="M0 26.66h60V40H0z"/><g fill="#007a3d"><path d="m23 15 1.3 3.5H28l-3 2.1 1.2 3.5-3.2-2-3.2 2 1.2-3.5-3-2.1h3.7zm14 0 1.3 3.5H42l-3 2.1 1.2 3.5-3.2-2-3.2 2 1.2-3.5-3-2.1h3.7z"/></g></symbol>
  <symbol id="flag-lb" viewBox="0 0 60 40"><path fill="#ed1c24" d="M0 0h60v10H0zm0 30h60v10H0z"/><path fill="#fff" d="M0 10h60v20H0z"/><path fill="#00a651" d="m30 11 9 15h-7v4h-4v-4h-7z"/></symbol>
  <symbol id="flag-bh" viewBox="0 0 60 40"><path fill="#fff" d="M0 0h18v40H0z"/><path fill="#ce1126" d="M18 0h42v40H18z"/><path fill="#fff" d="m18 0 7 2.5-7 2.5 7 2.5-7 2.5 7 2.5-7 2.5 7 2.5-7 2.5 7 2.5-7 2.5 7 2.5-7 2.5 7 2.5-7 2.5 7 2.5-7 2.5z"/></symbol>
  <symbol id="flag-ss" viewBox="0 0 60 40"><path fill="#000" d="M0 0h60v12H0z"/><path fill="#fff" d="M0 12h60v3H0zm0 25h60v3H0z"/><path fill="#da121a" d="M0 15h60v10H0z"/><path fill="#078930" d="M0 28h60v9H0z"/><path fill="#0f47af" d="m0 0 31 20L0 40z"/><path fill="#fcdd09" d="m11 13 1.7 4.8h5.1l-4.1 3 1.6 4.9-4.3-3-4.3 3 1.6-4.9-4.1-3h5.1z"/></symbol>
  <symbol id="flag-gn" viewBox="0 0 60 40"><path fill="#ce1126" d="M0 0h20v40H0z"/><path fill="#fcd116" d="M20 0h20v40H20z"/><path fill="#009460" d="M40 0h20v40H40z"/></symbol>
  <symbol id="flag-gy" viewBox="0 0 60 40"><path fill="#009e49" d="M0 0h60v40H0z"/><path fill="#fff" d="m0 0 60 20L0 40z"/><path fill="#fcd116" d="m0 3 51 17L0 37z"/><path fill="#000" d="m0 8 29 12L0 32z"/><path fill="#ce1126" d="m0 11 23 9L0 29z"/></symbol>
  <symbol id="flag-mw" viewBox="0 0 60 40"><path fill="#000" d="M0 0h60v13.34H0z"/><path fill="#ce1126" d="M0 13.33h60v13.34H0z"/><path fill="#339e35" d="M0 26.66h60V40H0z"/><path fill="#ce1126" d="M20 12a10 10 0 0 1 20 0h-3a7 7 0 0 0-14 0z"/></symbol>
  <symbol id="flag-eg" viewBox="0 0 60 40"><path fill="#ce1126" d="M0 0h60v13.34H0z"/><path fill="#fff" d="M0 13.33h60v13.34H0z"/><path fill="#000" d="M0 26.66h60V40H0z"/><path fill="#c09300" d="m30 14 5 5-2 7h-6l-2-7z"/></symbol>
  <symbol id="flag-za" viewBox="0 0 60 40"><path fill="#de3831" d="M0 0h60v18H0z"/><path fill="#002395" d="M0 22h60v18H0z"/><path fill="#fff" d="m0 0 29 18h31v4H29L0 40z"/><path fill="#007a4d" d="m0 4 25 16L0 36h12l22-13h26v-6H34L12 4z"/><path fill="#ffb612" d="m0 8 19 12L0 32z"/><path fill="#000" d="m0 12 13 8L0 28z"/></symbol>
  <symbol id="flag-kz" viewBox="0 0 60 40"><path fill="#00abc2" d="M0 0h60v40H0z"/><circle cx="33" cy="15" r="6" fill="#fec50c"/><path fill="#fec50c" d="M18 25q15 10 30 0-15 4-30 0zM6 0h3v40H6z"/></symbol>
  <symbol id="flag-uz" viewBox="0 0 60 40"><path fill="#1eb53a" d="M0 0h60v40H0z"/><path fill="#fff" d="M0 0h60v13H0zm0 27h60v13H0z"/><path fill="#0099b5" d="M0 0h60v12H0z"/><path fill="#ce1126" d="M0 12h60v2H0zm0 26h60v2H0z"/><circle cx="12" cy="6" r="4" fill="#fff"/><circle cx="14" cy="5" r="4" fill="#0099b5"/><g fill="#fff"><circle cx="22" cy="4" r="1"/><circle cx="27" cy="4" r="1"/><circle cx="32" cy="4" r="1"/><circle cx="24" cy="8" r="1"/><circle cx="29" cy="8" r="1"/></g></symbol>
  <symbol id="flag-hr" viewBox="0 0 60 40"><path fill="#ff0000" d="M0 0h60v13.34H0z"/><path fill="#fff" d="M0 13.33h60v13.34H0z"/><path fill="#171796" d="M0 26.66h60V40H0z"/><g><path fill="#fff" d="M24 13h12v14H24z"/><path fill="#ff0000" d="M24 13h4v4h-4zm8 0h4v4h-4zm-4 4h4v4h-4zm-4 4h4v4h-4zm8 0h4v4h-4z"/></g></symbol>
  <symbol id="flag-mk" viewBox="0 0 60 40"><path fill="#d20000" d="M0 0h60v40H0z"/><g fill="#ffe600"><path d="M28 0h4v40h-4zM0 18h60v4H0z"/><path d="m0 0 28 17-2 3L0 8zm60 0L32 17l2 3L60 8zM0 40l28-17-2-3L0 32zm60 0L32 23l2-3 26 12z"/></g><circle cx="30" cy="20" r="6" fill="#d20000" stroke="#ffe600" stroke-width="2"/></symbol>
  <symbol id="flag-kg" viewBox="0 0 60 40"><path fill="#e8112d" d="M0 0h60v40H0z"/><circle cx="30" cy="20" r="10" fill="#ffef00"/><circle cx="30" cy="20" r="4" fill="none" stroke="#e8112d" stroke-width="1.5"/><path fill="#e8112d" d="M25 18h10v1H25zm0 3h10v1H25z"/></symbol>
  <symbol id="flag-au" viewBox="0 0 60 40"><path fill="#00008b" d="M0 0h60v40H0z"/><path fill="#fff" d="M0 0h30v20H0z"/><path fill="#012169" d="m0 0 30 20H0zm30 0L0 20h30z"/><path fill="#fff" d="M12 0h6v20h-6zM0 7h30v6H0z"/><path fill="#c8102e" d="M14 0h3v20h-3zM0 9h30v3H0z"/><g fill="#fff"><circle cx="43" cy="10" r="2"/><circle cx="50" cy="19" r="2"/><circle cx="42" cy="30" r="2"/><circle cx="33" cy="22" r="3"/></g></symbol>
  <symbol id="flag-us" viewBox="0 0 60 40"><path fill="#fff" d="M0 0h60v40H0z"/><g fill="#b22234"><path d="M0 0h60v3.08H0zm0 6.15h60v3.08H0zm0 6.15h60v3.08H0zm0 6.16h60v3.08H0zm0 6.15h60v3.08H0zm0 6.16h60v3.08H0zm0 6.15h60V40H0z"/></g><path fill="#3c3b6e" d="M0 0h30v21.54H0z"/><g fill="#fff"><circle cx="5" cy="4" r="1"/><circle cx="10" cy="4" r="1"/><circle cx="15" cy="4" r="1"/><circle cx="20" cy="4" r="1"/><circle cx="25" cy="4" r="1"/><circle cx="7.5" cy="9" r="1"/><circle cx="12.5" cy="9" r="1"/><circle cx="17.5" cy="9" r="1"/><circle cx="22.5" cy="9" r="1"/><circle cx="5" cy="14" r="1"/><circle cx="10" cy="14" r="1"/><circle cx="15" cy="14" r="1"/><circle cx="20" cy="14" r="1"/><circle cx="25" cy="14" r="1"/></g></symbol>
</svg>
